<svg viewBox="0 0 1024 1024" xmlns="http://www.w3.org/2000/svg"><path d="M882.377 667.32h-59.739V512c0-19.775-16.067-35.843-35.842-35.843h-250.9V356.681h59.737c19.776 0 35.843-16.068 35.843-35.843V153.57c0-19.775-16.067-35.843-35.843-35.843H428.367c-19.776 0-35.843 16.068-35.843 35.843v167.267c0 19.775 16.067 35.843 35.843 35.843h59.738v119.476h-250.9c-19.776 0-35.843 16.068-35.843 35.843v155.32h-59.739c-19.775 0-35.842 16.067-35.842 35.842V870.43c0 19.775 16.067 35.843 35.842 35.843H308.89c19.776 0 35.843-16.068 35.843-35.843V703.162c0-19.775-16.067-35.843-35.843-35.843h-59.738V523.948h238.953v143.371h-59.738c-19.776 0-35.843 16.068-35.843 35.843V870.43c0 19.775 16.067 35.843 35.843 35.843h167.266c19.776 0 35.843-16.068 35.843-35.843V703.162c0-19.775-16.067-35.843-35.843-35.843h-59.738V523.948h238.953v143.371H715.11c-19.776 0-35.843 16.068-35.843 35.843V870.43c0 19.775 16.067 35.843 35.843 35.843h167.267c19.775 0 35.842-16.068 35.842-35.843V703.162c0-19.775-16.067-35.843-35.842-35.843zM440.314 165.518h143.372V308.89H440.314V165.52z m-143.371 549.59v143.372H153.57V715.11h143.372z m286.743 143.372H440.314V715.11h143.372V858.48z m286.743 0H727.057V715.11H870.43V858.48z" /></svg>